<svg viewBox="0 0 200 400" xmlns="http://www.w3.org/2000/svg">
  <path d="M40 400 C80 300, 90 180, 150 60" stroke="#b67b57" stroke-width="2" fill="none"/>
  <path d="M70 310 C30 300, 10 280, 0 250 M82 270 C42 260, 18 230, 8 198 M95 230 C55 210, 28 180, 20 145 M112 190 C72 160, 55 130, 55 95 M128 150 C96 118, 88 86, 96 54 M72 310 C112 296, 150 268, 180 232 M84 270 C124 252, 160 218, 190 176 M98 230 C138 206, 166 168, 190 120 M115 190 C150 162, 168 122, 176 76" stroke="#b67b57" stroke-width="1.5" fill="none"/>
</svg>